<svg xmlns="http://www.w3.org/2000/svg" viewBox="0 0 100 100"><rect width="100" height="100" rx="22" fill="#f6efe2"/><g transform="translate(6 6) scale(.88)"><defs><radialGradient id="g" cx="38%" cy="30%" r="75%"><stop offset="0" stop-color="#c8463d"/><stop offset=".6" stop-color="#9e2026"/><stop offset="1" stop-color="#6e1317"/></radialGradient><linearGradient id="au" x1="0" y1="0" x2="1" y2="1"><stop offset="0" stop-color="#f3dca4"/><stop offset=".5" stop-color="#c9a35f"/><stop offset="1" stop-color="#f0d699"/></linearGradient></defs><circle cx="50" cy="50" r="49" fill="url(#g)"/><circle cx="50" cy="50" r="46" fill="none" stroke="url(#au)" stroke-width="1.6"/><circle cx="50" cy="50" r="25.5" fill="none" stroke="url(#au)" stroke-width=".8" opacity=".7"/><g fill="url(#au)"><g transform="rotate(0 50 50)"><rect x="44.5" y="17.6" width="11" height="2.8" rx="0.9"/></g><g transform="rotate(0 50 50)"><rect x="44.5" y="12.999999999999998" width="11" height="2.8" rx="0.9"/></g><g transform="rotate(0 50 50)"><rect x="44.5" y="8.399999999999997" width="11" height="2.8" rx="0.9"/></g><g transform="rotate(45 50 50)"><rect x="44.5" y="17.6" width="11" height="2.8" rx="0.9"/></g><g transform="rotate(45 50 50)"><rect x="44.5" y="12.999999999999998" width="11" height="2.8" rx="0.9"/></g><g transform="rotate(45 50 50)"><rect x="44.5" y="8.399999999999997" width="4.6" height="2.8" rx="0.9"/><rect x="50.9" y="8.399999999999997" width="4.6" height="2.8" rx="0.9"/></g><g transform="rotate(90 50 50)"><rect x="44.5" y="17.6" width="11" height="2.8" rx="0.9"/></g><g transform="rotate(90 50 50)"><rect x="44.5" y="12.999999999999998" width="4.6" height="2.8" rx="0.9"/><rect x="50.9" y="12.999999999999998" width="4.6" height="2.8" rx="0.9"/></g><g transform="rotate(90 50 50)"><rect x="44.5" y="8.399999999999997" width="11" height="2.8" rx="0.9"/></g><g transform="rotate(135 50 50)"><rect x="44.5" y="17.6" width="11" height="2.8" rx="0.9"/></g><g transform="rotate(135 50 50)"><rect x="44.5" y="12.999999999999998" width="4.6" height="2.8" rx="0.9"/><rect x="50.9" y="12.999999999999998" width="4.6" height="2.8" rx="0.9"/></g><g transform="rotate(135 50 50)"><rect x="44.5" y="8.399999999999997" width="4.6" height="2.8" rx="0.9"/><rect x="50.9" y="8.399999999999997" width="4.6" height="2.8" rx="0.9"/></g><g transform="rotate(180 50 50)"><rect x="44.5" y="17.6" width="4.6" height="2.8" rx="0.9"/><rect x="50.9" y="17.6" width="4.6" height="2.8" rx="0.9"/></g><g transform="rotate(180 50 50)"><rect x="44.5" y="12.999999999999998" width="11" height="2.8" rx="0.9"/></g><g transform="rotate(180 50 50)"><rect x="44.5" y="8.399999999999997" width="11" height="2.8" rx="0.9"/></g><g transform="rotate(225 50 50)"><rect x="44.5" y="17.6" width="4.6" height="2.8" rx="0.9"/><rect x="50.9" y="17.6" width="4.6" height="2.8" rx="0.9"/></g><g transform="rotate(225 50 50)"><rect x="44.5" y="12.999999999999998" width="11" height="2.8" rx="0.9"/></g><g transform="rotate(225 50 50)"><rect x="44.5" y="8.399999999999997" width="4.6" height="2.8" rx="0.9"/><rect x="50.9" y="8.399999999999997" width="4.6" height="2.8" rx="0.9"/></g><g transform="rotate(270 50 50)"><rect x="44.5" y="17.6" width="4.6" height="2.8" rx="0.9"/><rect x="50.9" y="17.6" width="4.6" height="2.8" rx="0.9"/></g><g transform="rotate(270 50 50)"><rect x="44.5" y="12.999999999999998" width="4.6" height="2.8" rx="0.9"/><rect x="50.9" y="12.999999999999998" width="4.6" height="2.8" rx="0.9"/></g><g transform="rotate(270 50 50)"><rect x="44.5" y="8.399999999999997" width="11" height="2.8" rx="0.9"/></g><g transform="rotate(315 50 50)"><rect x="44.5" y="17.6" width="4.6" height="2.8" rx="0.9"/><rect x="50.9" y="17.6" width="4.6" height="2.8" rx="0.9"/></g><g transform="rotate(315 50 50)"><rect x="44.5" y="12.999999999999998" width="4.6" height="2.8" rx="0.9"/><rect x="50.9" y="12.999999999999998" width="4.6" height="2.8" rx="0.9"/></g><g transform="rotate(315 50 50)"><rect x="44.5" y="8.399999999999997" width="4.6" height="2.8" rx="0.9"/><rect x="50.9" y="8.399999999999997" width="4.6" height="2.8" rx="0.9"/></g></g><g transform="translate(50 50)"><circle r="21" fill="#fbf6ea"/><path d="M0 -21 A21 21 0 0 1 0 21 A10.5 10.5 0 0 1 0 0 A10.5 10.5 0 0 0 0 -21Z" fill="#2a2420"/><circle cy="-10.5" r="3.4" fill="#2a2420"/><circle cy="10.5" r="3.4" fill="#fbf6ea"/><circle r="21" fill="none" stroke="#d9b877" stroke-width="1.2"/></g></g></svg>